vt 0.5 1
vt 0.5 0.75
vt 0.75 1
vt 0.75 0.75
vt 0 0.25
vt 0 0
vt 0.25 0.25
vt 0.25 0
vt 0.5 0.25
vt 0.5 0
vt 0.75 0.25
vt 0.75 0
vt 1 0.25
vt 1 0

v -0.5 -0.5 -0.5
v -0.5 -0.5 0.5
v -0.5 0.5 -0.5
v -0.5 0.5 0.5
v 0.5 -0.5 -0.5
v 0.5 -0.5 0.5
v 0.5 0.5 -0.5
v 0.5 0.5 0.5

vn -1 0 0
vn 1 0 0
vn 0 -1 0
vn 0 1 0
vn 0 0 -1
vn 0 0 1

# U
f 3/1/4 4/2/4 8/4/4
f 3/1/4 8/4/4 7/3/4
# R
f 1/5/1 2/7/1 4/8/1
f 1/5/1 4/8/1 3/6/1
# L
f 5/11/2 8/10/2 6/9/2
f 5/11/2 7/12/2 8/10/2
# B
f 1/13/5 7/12/5 5/11/5
f 1/13/5 3/14/5 7/12/5
# F
f 2/7/6 6/9/6 8/10/6
f 2/7/6 8/10/6 4/8/6
