vt 0 0.5
vt 0 0
vt 0.25 1
vt 0.25 0.5
vt 0.25 0
vt 0.5 1
vt 0.5 0.5
vt 0.5 0
vt 0.75 1
vt 0.75 0.5
vt 0.75 0
vt 1 0.5
vt 1 0

v -0.5 -0.5 -0.5
v -0.5 -0.5 0.5
v -0.5 0.5 -0.5
v -0.5 0.5 0.5
v 0.5 -0.5 -0.5
v 0.5 -0.5 0.5
v 0.5 0.5 -0.5
v 0.5 0.5 0.5

vn -1 0 0
vn 1 0 0
vn 0 -1 0
vn 0 1 0
vn 0 0 -1
vn 0 0 1

# D
f 1/6/3 6/10/3 2/7/3
f 1/6/3 5/9/3 6/10/3
# U
f 3/3/4 4/4/4 8/7/4
f 3/3/4 8/7/4 7/6/4
# R
f 1/2/1 2/5/1 4/4/1
f 1/2/1 4/4/1 3/1/1
# L
f 5/11/2 8/7/2 6/8/2
f 5/11/2 7/10/2 8/7/2
# B
f 1/13/5 7/10/5 5/11/5
f 1/13/5 3/12/5 7/10/5
# F
f 2/5/6 6/8/6 8/7/6
f 2/5/6 8/7/6 4/4/6
